<?xml version="1.0" encoding="UTF-8"?>
<svg id="Camada_1" xmlns="http://www.w3.org/2000/svg" version="1.1" xmlns:xlink="http://www.w3.org/1999/xlink" viewBox="0 0 1000 1000">
  <!-- Generator: Adobe Illustrator 30.3.0, SVG Export Plug-In . SVG Version: 2.1.3 Build 182)  -->
  <defs>
    <style>
      .st0 {
        font-family: Montserrat-Regular, Montserrat;
        font-size: 25.45px;
      }

      .st0, .st1 {
        isolation: isolate;
      }

      .st0, .st2, .st3 {
        fill: #001c55;
      }

      .st4 {
        fill: url(#Gradiente_sem_nome_5);
      }

      .st5 {
        fill: #a4b0be;
      }

      .st1, .st3, .st6 {
        display: none;
      }

      .st7 {
        fill: url(#Gradiente_sem_nome_2);
      }

      .st8 {
        fill: url(#Gradiente_sem_nome);
      }

      .st9 {
        fill: #a80019;
      }

      .st10 {
        fill: url(#Gradiente_sem_nome_4);
      }

      .st11 {
        fill: url(#Gradiente_sem_nome_6);
      }

      .st12 {
        fill: none;
        stroke: #a80019;
        stroke-miterlimit: 10;
        stroke-width: 5px;
      }

      .st13 {
        fill: url(#Gradiente_sem_nome_3);
      }
    </style>
    <linearGradient id="Gradiente_sem_nome" data-name="Gradiente sem nome" x1="204.09" y1="500" x2="387.92" y2="500" gradientTransform="translate(0 1000) scale(1 -1)" gradientUnits="userSpaceOnUse">
      <stop offset="0" stop-color="#113558"/>
      <stop offset="1" stop-color="#001930"/>
    </linearGradient>
    <linearGradient id="Gradiente_sem_nome_2" data-name="Gradiente sem nome 2" x1="171.03" y1="495.66" x2="271.04" y2="495.66" gradientUnits="userSpaceOnUse">
      <stop offset="0" stop-color="#113558"/>
      <stop offset="1" stop-color="#001930"/>
    </linearGradient>
    <linearGradient id="Gradiente_sem_nome_3" data-name="Gradiente sem nome 3" x1="150.67" y1="557.04" x2="237.09" y2="557.04" gradientUnits="userSpaceOnUse">
      <stop offset="0" stop-color="#113558"/>
      <stop offset="1" stop-color="#001930"/>
    </linearGradient>
    <linearGradient id="Gradiente_sem_nome_4" data-name="Gradiente sem nome 4" x1="268.66" y1="514.62" x2="350.26" y2="514.62" gradientTransform="translate(0 1000) scale(1 -1)" gradientUnits="userSpaceOnUse">
      <stop offset="0" stop-color="#ab001b"/>
      <stop offset="1" stop-color="#440002"/>
    </linearGradient>
    <linearGradient id="Gradiente_sem_nome_5" data-name="Gradiente sem nome 5" x1="215.64" y1="476.88" x2="325.03" y2="476.88" gradientTransform="translate(0 1000) scale(1 -1)" gradientUnits="userSpaceOnUse">
      <stop offset="0" stop-color="#ab001b"/>
      <stop offset="1" stop-color="#440002"/>
    </linearGradient>
    <linearGradient id="Gradiente_sem_nome_6" data-name="Gradiente sem nome 6" x1="237.84" y1="432.27" x2="309.15" y2="432.27" gradientTransform="translate(0 1000) scale(1 -1)" gradientUnits="userSpaceOnUse">
      <stop offset="0" stop-color="#ab001b"/>
      <stop offset="1" stop-color="#440002"/>
    </linearGradient>
  </defs>
  <rect class="st3" width="1000" height="1000"/>
  <g id="Objeto_generativo" class="st6">
    <path class="st5" d="M-236.91,990.85l-90.06-161.52c-13.78-24.72-25.08-48.11-32.81-75.32-13.04-45.83-10.78-94.56,13.42-137.34l90.55-160.08-142.15-83.65L38.83,299.27l157.57,420.67-144.59-83.7-122.22,212.61c-59.6,106.23-103.19,195.3-60.64,318.88-38.58-58.09-72.04-116.22-105.86-176.88h0Z"/>
    <path class="st5" d="M1078.34-96.68l-158.1,408.19-436.86-67.34,142.43-83.01L472.67-99.89c-48.87-81.83-101.91-140.06-195.09-162.19l359.85-1.01c44.14-.12,84.6,5.91,123.92,23.43,37.09,15.69,65.49,43.04,84.26,78.84L933.4-13.76l144.94-82.92h0Z"/>
    <path class="st5" d="M1240.69,900.84l-130.53,240.67c-16.17,29.81-35.2,56.07-59.94,78.4-37,31.25-79.32,47.85-127.7,48.23l-163.93,1.31.45,165.96-272.89-343.68,265.66-344.49,3.32,165.15,239.08-1.74,89.81-4.98c75.52-4.19,159.13-45.87,209.01-106.64l-52.34,101.81h0Z"/>
    <path class="st5" d="M53.08,1270.18c-99.77-8.02-162.47-84.98-168.99-179.41-5.12-65.43,16.61-123.04,47.4-178.75l488.31-.29,3.79,358.72-370.51-.27h0Z"/>
    <path class="st5" d="M1306.31,663.86c1.06,105.68-82.88,179.59-180.89,202.86l-82.64,11.08-242.47-422.78,307.97-178.04,174.28,303.04c12.99,27.8,21.77,53.63,23.76,83.84h-.01Z"/>
    <path class="st5" d="M450.98-74.59l-235.7,404.93L-89.76,152.69,94.75-163.7c35.65-53.61,97.4-79.2,161.24-70.58,92.91,14.77,150.05,79.05,194.99,159.68h0Z"/>
  </g>
  <path class="st8" d="M324.81,582.33l-52.41-52.37,41.63-.5c15.81-.19,30.59-8.56,39.25-21.35,8.36-12.36,10.21-27.9,2.8-41.35-6.48-11.78-19.01-20.6-34.1-20.64l-117.89-.32.08-28.13,120.23.68c20.48.11,39.01,11.61,50.28,26.11,13.48,17.34,16.2,38.83,10.28,59.3-6.65,23.01-25.12,40.28-47.59,48.71l29.09,29.77-41.64.1h-.02,0Z"/>
  <polygon class="st7" points="192.71 459.91 258.06 459.92 271.04 473.54 259.01 488.46 218.19 488.46 201.51 530.79 187.97 521.77 171.03 531.42 198.14 469.3 192.71 459.91"/>
  <path class="st13" d="M237.09,566.43l-10.98,15.9h-75.44l15.25-39.42c7.12-4.09,13.94-7.75,21.73-11.17l12.37,8.31-4.93,13.6,30.62.06,11.37,12.74h0v-.02h.01Z"/>
  <path class="st10" d="M316.79,496.71c2.38-2.8,4.2-4.12,6-8.11l-53.63-.11,11.55-15.33-12.05-13.52h56.57c8.57-.01,16.44,4.66,20.53,10.71,9.69,14.33,2.87,30.73-12.32,40.76-6.5-4.07-11.34-8.88-16.63-14.41h-.02Z"/>
  <path class="st4" d="M268.42,521.33c-5.53,0-9.16,3.08-12.41,6.65-3.35,4.8-5.84,9.98-8.38,15.5l-31.99.09,16.5-40.91h77.74l15.15,14.73c-6.91,3.03-13.46,3.98-20.57,3.87l-36.06.07h.02Z"/>
  <path class="st11" d="M283.17,554.75l25.98,25.99-71.18-.46,9.36-13.97c-2.74-2.79-5.32-5.07-7.05-7.74l-2.44-3.77,45.32-.07h0v.02h0Z"/>
  <g>
    <path class="st9" d="M446.84,497.47h-7.79v13.41h-14.28v-50.47h23.07c13.77,0,22.42,7.13,22.42,18.67,0,7.42-3.61,12.91-9.88,15.94l10.88,15.86h-15.28l-9.16-13.41h.02ZM446.97,471.66h-7.93v14.78h7.93c5.91,0,8.87-2.74,8.87-7.36s-2.96-7.42-8.87-7.42Z"/>
    <path class="st9" d="M511.94,501.07h-21.34l-3.96,9.8h-14.57l22.28-50.47h14.06l22.35,50.47h-14.86l-3.96-9.8h-.01,0ZM507.76,490.54l-6.49-16.15-6.49,16.15h12.98,0Z"/>
    <path class="st9" d="M531.48,485.65c0-15.36,11.75-26.24,27.75-26.24,9.3,0,16.79,3.38,21.7,9.52l-9.08,8.21c-3.17-3.82-7.07-5.91-11.9-5.91-8.29,0-14.06,5.76-14.06,14.42s5.76,14.42,14.06,14.42c4.83,0,8.72-2.09,11.9-5.91l9.08,8.21c-4.91,6.13-12.4,9.51-21.7,9.51-16,0-27.75-10.88-27.75-26.24h0Z"/>
    <path class="st9" d="M620.23,501.07h-21.34l-3.96,9.8h-14.57l22.28-50.47h14.06l22.35,50.47h-14.86l-3.96-9.8h-.01.01ZM616.06,490.54l-6.49-16.15-6.49,16.15h12.98Z"/>
    <path class="st9" d="M691.11,460.41v50.47h-11.75l-22.28-26.9v26.9h-13.99v-50.47h11.75l22.28,26.9v-26.9h13.99Z"/>
    <path class="st9" d="M741.73,499.85v11.03h-40.52v-50.47h39.58v11.03h-25.45v8.5h22.42v10.67h-22.42v9.23h26.39Z"/>
    <path class="st9" d="M749.67,460.41h14.28v39.15h24.08v11.32h-38.36v-50.47h0Z"/>
    <path class="st9" d="M793.65,460.41h14.28v39.15h24.08v11.32h-38.36v-50.47h0Z"/>
    <path class="st9" d="M837.62,460.41h14.28v50.47h-14.28v-50.47Z"/>
  </g>
  <line class="st12" x1="425.44" y1="545.82" x2="486.24" y2="545.82"/>
  <line class="st12" x1="793.65" y1="545.5" x2="854.44" y2="545.5"/>
  <g class="st1">
    <g class="st1">
      <text class="st0" transform="translate(419.8 581.64)"><tspan x="0" y="0">Transformando resíduos em valor.</tspan></text>
    </g>
  </g>
  <g>
    <path class="st2" d="M530.44,542.46c0,6.57-4.87,10.63-12.72,10.63h-6.74v8.62h-5.55v-29.88h12.29c7.85,0,12.72,4.01,12.72,10.63ZM524.85,542.46c0-3.76-2.52-5.93-7.38-5.93h-6.49v11.87h6.49c4.87,0,7.38-2.18,7.38-5.93Z"/>
    <path class="st2" d="M534.28,546.77c0-8.83,6.83-15.36,16.09-15.36s16.09,6.49,16.09,15.36-6.83,15.36-16.09,15.36-16.09-6.53-16.09-15.36ZM560.87,546.77c0-6.1-4.48-10.5-10.5-10.5s-10.5,4.4-10.5,10.5,4.48,10.5,10.5,10.5,10.5-4.4,10.5-10.5Z"/>
    <path class="st2" d="M572.35,531.83h5.55v25.18h15.62v4.69h-21.17v-29.88Z"/>
    <path class="st2" d="M602.87,523.55h6.27l-7.43,5.85h-4.61l5.76-5.85ZM597.92,531.83h5.55v29.88h-5.55v-29.88Z"/>
    <path class="st2" d="M638.98,561.71l-.04-19.8-9.82,16.39h-2.48l-9.82-16.13v19.55h-5.29v-29.88h4.57l11.87,19.8,11.65-19.8h4.57l.04,29.88h-5.25Z"/>
    <path class="st2" d="M674.71,557.05v4.65h-22.41v-29.88h21.81v4.65h-16.26v7.77h14.43v4.57h-14.43v8.24h16.86Z"/>
    <path class="st2" d="M700.44,561.71l-6.1-8.75c-.38.04-.77.04-1.15.04h-6.74v8.71h-5.55v-29.88h12.29c7.85,0,12.72,4.01,12.72,10.63,0,4.52-2.3,7.85-6.36,9.43l6.87,9.82h-5.98ZM692.93,536.53h-6.49v11.91h6.49c4.87,0,7.38-2.22,7.38-5.97s-2.52-5.93-7.38-5.93Z"/>
    <path class="st2" d="M709.96,546.77c0-8.83,6.83-15.36,16.09-15.36s16.09,6.49,16.09,15.36-6.83,15.36-16.09,15.36-16.09-6.53-16.09-15.36ZM736.55,546.77c0-6.1-4.48-10.5-10.5-10.5s-10.5,4.4-10.5,10.5,4.48,10.5,10.5,10.5,10.5-4.4,10.5-10.5Z"/>
    <path class="st2" d="M745.52,558.55l1.92-4.31c2.39,1.92,6.19,3.29,9.86,3.29,4.65,0,6.62-1.66,6.62-3.88,0-6.44-17.75-2.22-17.75-13.32,0-4.82,3.84-8.92,12.04-8.92,3.58,0,7.34.94,9.94,2.65l-1.75,4.31c-2.69-1.58-5.63-2.35-8.24-2.35-4.61,0-6.49,1.79-6.49,4.05,0,6.36,17.71,2.22,17.71,13.19,0,4.78-3.88,8.88-12.08,8.88-4.65,0-9.3-1.45-11.78-3.58Z"/>
  </g>
</svg>